<?xml version="1.0" encoding="UTF-8"?>
<svg version="1.1" xmlns="http://www.w3.org/2000/svg" width="192" height="192">
<path d="M0 0 C19.38063055 15.28903676 31.45726531 37.14581673 34.81640625 61.6015625 C35.09691143 65.54418193 35.15124279 69.46240888 35.12890625 73.4140625 C35.1232666 74.46722656 35.11762695 75.52039063 35.11181641 76.60546875 C34.70182254 102.97497525 23.07939517 125.11565205 4.36328125 143.29296875 C-14.50168853 160.39296436 -39.82434573 167.80889846 -64.92285156 166.74951172 C-89.74657312 165.12497875 -111.55247381 153.03925296 -128.734375 135.42578125 C-146.80245904 114.591292 -152.79640904 88.60495587 -151.18359375 61.6015625 C-148.47061211 37.09149815 -135.20092305 15.08338407 -116.30859375 -0.4609375 C-81.87304608 -26.83171196 -34.10994852 -25.69755631 0 0 Z " fill="#72523C" transform="translate(154.18359375,25.3984375)"/>
<path d="M0 0 C0.7106662 -0.0065712 1.4213324 -0.0131424 2.15353394 -0.01991272 C4.51690772 -0.03969922 6.88021764 -0.05132344 9.24365234 -0.0612793 C10.05040783 -0.06535482 10.85716331 -0.06943035 11.68836594 -0.07362938 C15.96281429 -0.09451834 20.23723033 -0.10880468 24.51171875 -0.11816406 C28.92013395 -0.12920181 33.32804063 -0.16356261 37.73627663 -0.20333576 C41.13016674 -0.2295397 44.52393679 -0.23785949 47.91791916 -0.24144554 C49.54216296 -0.24630605 51.1664016 -0.25790481 52.79054642 -0.27648354 C55.07170435 -0.30094422 57.3515624 -0.29989746 59.6328125 -0.29296875 C60.92885406 -0.29883499 62.22489563 -0.30470123 63.56021118 -0.31074524 C68.6174729 0.36609584 72.26778572 2.30404851 75.98193359 5.89575195 C79.78720758 11.73819283 80.24581525 17.33190901 79.20458984 24.17700195 C76.56228399 29.65734002 72.8129474 33.0901863 67.20458984 35.42700195 C64.38812483 36.13111821 62.08978353 36.34671923 59.20458984 36.17700195 C59.24583984 37.47637695 59.28708984 38.77575195 59.32958984 40.11450195 C59.26475491 50.48809081 56.20759986 58.71318839 49.12646484 66.4465332 C40.53351477 74.54373615 31.5647926 77.56379178 19.85302734 77.38793945 C8.06837858 76.44933911 0.85785542 70.22056608 -6.93603516 61.91137695 C-11.81935105 54.73003004 -13.41047519 47.53722569 -13.36181641 38.9699707 C-13.36801498 38.04154861 -13.37421356 37.11312653 -13.38059998 36.15657043 C-13.38764737 34.21295206 -13.38461401 32.26927267 -13.37182617 30.32568359 C-13.35785978 27.35378141 -13.39222534 24.38497218 -13.43017578 21.41333008 C-13.43112622 19.51554285 -13.4292722 17.6177517 -13.42431641 15.7199707 C-13.43757462 14.83657516 -13.45083282 13.95317963 -13.4644928 13.04301453 C-13.39613685 8.5257819 -13.27093095 6.75948563 -10.31860352 3.14306641 C-9.48594971 2.49426514 -8.6532959 1.84546387 -7.79541016 1.17700195 C-5.89376746 -0.72464074 -2.52309828 0.01923528 0 0 Z " fill="#FEFDFD" transform="translate(67.79541015625,49.822998046875)"/>
<path d="M0 0 C19.38063055 15.28903676 31.45726531 37.14581673 34.81640625 61.6015625 C35.09691143 65.54418193 35.15124279 69.46240888 35.12890625 73.4140625 C35.1232666 74.46722656 35.11762695 75.52039063 35.11181641 76.60546875 C34.70182254 102.97497525 23.07939517 125.11565205 4.36328125 143.29296875 C-14.50168853 160.39296436 -39.82434573 167.80889846 -64.92285156 166.74951172 C-89.74657312 165.12497875 -111.55247381 153.03925296 -128.734375 135.42578125 C-146.80245904 114.591292 -152.79640904 88.60495587 -151.18359375 61.6015625 C-148.47061211 37.09149815 -135.20092305 15.08338407 -116.30859375 -0.4609375 C-81.87304608 -26.83171196 -34.10994852 -25.69755631 0 0 Z M-125.10546875 11.79296875 C-142.45161282 32.34312096 -147.76406946 56.12105806 -146.18359375 82.6015625 C-143.45383414 105.81117712 -130.58887435 126.5923667 -112.42871094 140.99316406 C-92.06993867 156.31426272 -68.36280799 161.11045264 -43.2265625 158.1328125 C-39.79157697 157.47329528 -36.52666613 156.62900267 -33.18359375 155.6015625 C-32.54760254 155.40820312 -31.91161133 155.21484375 -31.25634766 155.015625 C-16.53160593 150.40725377 -5.20081404 142.42915766 5.81640625 131.6015625 C6.51378906 130.91707031 7.21117187 130.23257813 7.9296875 129.52734375 C24.83209778 111.7716079 30.73072481 88.38700627 30.1640625 64.52734375 C29.16651472 42.17726781 18.9030086 21.07798338 2.81640625 5.6015625 C-34.1166735 -26.94443872 -91.69205784 -25.79149715 -125.10546875 11.79296875 Z " fill="#010000" transform="translate(154.18359375,25.3984375)"/>
<path d="M0 0 C17.16 0 34.32 0 52 0 C52 5.28 52 10.56 52 16 C34.84 16 17.68 16 0 16 C0 10.72 0 5.44 0 0 Z " fill="#7A5C46" transform="translate(65,60)"/>
<path d="M0 0 C27.06 0 54.12 0 82 0 C82 3.3 82 6.6 82 10 C54.94 10 27.88 10 0 10 C0 6.7 0 3.4 0 0 Z " fill="#FFFFFF" transform="translate(55,132)"/>
<path d="M0 0 C-4.00791079 1.60316431 -7.36701566 0.26931824 -11.3125 -0.875 C-33.75617869 -6.85350299 -57.3960628 -3.61901047 -77.69262695 7.64013672 C-89.24645387 14.74692097 -101.03780385 26.31345646 -108 38 C-108.33 37.34 -108.66 36.68 -109 36 C-93.23637023 13.72619586 -75.24178271 0.20723344 -48.30859375 -5.578125 C-32.97153107 -7.5337363 -13.91172467 -7.79899716 0 0 Z " fill="#876D5C" transform="translate(129,14)"/>
<path d="M0 0 C7 1 7 1 8.9375 2.1875 C10.52215244 4.89073063 10.31396245 6.92316802 10 10 C8.6 13.7 8.6 13.7 6 15 C4.02 15 2.04 15 0 15 C0 10.05 0 5.1 0 0 Z " fill="#75553F" transform="translate(127,60)"/>
<path d="M0 0 C0.99 0.66 1.98 1.32 3 2 C2.10796875 2.86882813 1.2159375 3.73765625 0.296875 4.6328125 C-0.88568535 5.79660205 -2.067962 6.96067992 -3.25 8.125 C-3.83652344 8.69476563 -4.42304688 9.26453125 -5.02734375 9.8515625 C-8.55480836 13.33939267 -11.40306908 16.77034518 -14 21 C-14.33 20.34 -14.66 19.68 -15 19 C-10.30423743 12.36494847 -5.49625431 5.99435236 0 0 Z " fill="#7D6452" transform="translate(35,31)"/>
</svg>
